# Blender 4.1.1
# www.blender.org
mtllib truc_chelou.mtl
o Test
v -1.000000 -0.022045 1.000000
v -0.565458 1.000000 0.565458
v -1.000000 -0.022045 -1.000000
v -0.565458 1.000000 -0.565458
v 1.000000 -0.022045 1.000000
v 0.565458 1.000000 0.565458
v 1.000000 -0.022045 -1.000000
v 0.565458 1.000000 -0.565458
v -1.000000 1.000000 1.000000
v -1.000000 1.000000 -1.000000
v 1.000000 1.000000 -1.000000
v 1.000000 1.000000 1.000000
v -1.051395 2.538543 1.051395
v -1.051395 2.538543 -1.051395
v 1.051395 2.538543 -1.051395
v 1.051395 2.538543 1.051395
v -0.565458 2.538543 0.565458
v -0.565458 2.538543 -0.565458
v 0.565458 2.538543 -0.565458
v 0.565458 2.538543 0.565458
v 0.000000 3.384161 0.000000
vn -1.0000 -0.0000 -0.0000
vn -0.0000 -0.0000 -1.0000
vn 1.0000 -0.0000 -0.0000
vn -0.0000 -0.0000 1.0000
vn -0.0000 -1.0000 -0.0000
vn -0.0000 1.0000 -0.0000
vn -0.0000 0.7792 0.6267
vn -0.0000 0.7792 -0.6267
vn 0.6267 0.7792 -0.0000
vn -0.6267 0.7792 -0.0000
vt 0.625000 0.000000
vt 0.375000 0.250000
vt 0.375000 0.000000
vt 0.625000 0.250000
vt 0.375000 0.500000
vt 0.625000 0.500000
vt 0.375000 0.750000
vt 0.625000 0.750000
vt 0.375000 1.000000
vt 0.125000 0.750000
vt 0.125000 0.500000
vt 0.679318 0.554318
vt 0.679318 0.695682
vt 0.820682 0.554318
vt 0.875000 0.750000
vt 0.820682 0.695682
vt 0.875000 0.500000
vt 0.625000 1.000000
s 0
f 9/1/1 3/2/1 1/3/1
f 10/4/2 7/5/2 3/2/2
f 11/6/3 5/7/3 7/5/3
f 12/8/4 1/9/4 5/7/4
f 7/5/5 1/10/5 3/11/5
f 8/12/3 20/13/3 6/13/3
f 4/14/6 9/15/6 2/16/6
f 8/12/6 10/17/6 4/14/6
f 6/13/6 11/6/6 8/12/6
f 2/16/6 12/8/6 6/13/6
f 13/16/7 16/13/7 21/16/7
f 2/16/1 18/14/1 4/14/1
f 6/13/4 17/16/4 2/16/4
f 4/14/2 19/12/2 8/12/2
f 14/14/5 17/16/5 13/16/5
f 15/12/5 18/14/5 14/14/5
f 16/13/5 19/12/5 15/12/5
f 13/16/5 20/13/5 16/13/5
f 10/4/2 11/6/2 7/5/2
f 15/12/8 14/14/8 21/12/8
f 16/13/9 15/12/9 21/13/9
f 14/14/10 13/16/10 21/14/10
f 9/1/1 10/4/1 3/2/1
f 11/6/3 12/8/3 5/7/3
f 12/8/4 9/18/4 1/9/4
f 7/5/5 5/7/5 1/10/5
f 8/12/3 19/12/3 20/13/3
f 4/14/6 10/17/6 9/15/6
f 8/12/6 11/6/6 10/17/6
f 6/13/6 12/8/6 11/6/6
f 2/16/6 9/15/6 12/8/6
f 2/16/1 17/16/1 18/14/1
f 6/13/4 20/13/4 17/16/4
f 4/14/2 18/14/2 19/12/2
f 14/14/5 18/14/5 17/16/5
f 15/12/5 19/12/5 18/14/5
f 16/13/5 20/13/5 19/12/5
f 13/16/5 17/16/5 20/13/5
