# Blender v2.91.0 OBJ File: ''
# www.blender.org
mtllib donut.mtl
o Torus.001
v 0.910000 0.000000 0.000000
v 0.785000 0.216506 0.000000
v 0.535000 0.216506 0.000000
v 0.410000 0.000000 0.000000
v 0.535000 -0.216506 0.000000
v 0.785000 -0.216506 0.000000
v 0.765541 0.000000 -0.491983
v 0.660384 0.216506 -0.424403
v 0.450071 0.216506 -0.289243
v 0.344914 0.000000 -0.221663
v 0.450071 -0.216506 -0.289243
v 0.660384 -0.216506 -0.424403
v 0.378028 0.000000 -0.827765
v 0.326101 0.216506 -0.714061
v 0.222247 0.216506 -0.486653
v 0.170320 0.000000 -0.372949
v 0.222247 -0.216506 -0.486653
v 0.326101 -0.216506 -0.714061
v -0.129507 0.000000 -0.900737
v -0.111717 0.216506 -0.777010
v -0.076138 0.216506 -0.529554
v -0.058349 0.000000 -0.405827
v -0.076138 -0.216506 -0.529554
v -0.111717 -0.216506 -0.777010
v -0.595923 0.000000 -0.687732
v -0.514066 0.216506 -0.593263
v -0.350350 0.216506 -0.404326
v -0.268493 0.000000 -0.309857
v -0.350350 -0.216506 -0.404326
v -0.514066 -0.216506 -0.593263
v -0.873139 0.000000 -0.256376
v -0.753202 0.216506 -0.221160
v -0.513329 0.216506 -0.150727
v -0.393392 0.000000 -0.115510
v -0.513329 -0.216506 -0.150727
v -0.753202 -0.216506 -0.221160
v -0.873139 0.000000 0.256376
v -0.753202 0.216506 0.221160
v -0.513329 0.216506 0.150727
v -0.393392 0.000000 0.115510
v -0.513329 -0.216506 0.150727
v -0.753202 -0.216506 0.221160
v -0.595924 0.000000 0.687732
v -0.514066 0.216506 0.593263
v -0.350351 0.216506 0.404326
v -0.268493 0.000000 0.309857
v -0.350351 -0.216506 0.404326
v -0.514066 -0.216506 0.593263
v -0.129507 0.000000 0.900737
v -0.111718 0.216506 0.777010
v -0.076139 0.216506 0.529554
v -0.058349 0.000000 0.405827
v -0.076139 -0.216506 0.529554
v -0.111718 -0.216506 0.777010
v 0.378028 0.000000 0.827765
v 0.326101 0.216506 0.714061
v 0.222247 0.216506 0.486653
v 0.170320 0.000000 0.372949
v 0.222247 -0.216506 0.486653
v 0.326101 -0.216506 0.714061
v 0.765541 0.000000 0.491983
v 0.660384 0.216506 0.424403
v 0.450071 0.216506 0.289243
v 0.344914 0.000000 0.221663
v 0.450071 -0.216506 0.289243
v 0.660384 -0.216506 0.424403
vt 0.636364 0.500000
vt 0.545455 0.666667
vt 0.545455 0.500000
vt 0.636364 0.666667
vt 0.545455 0.833333
vt 0.636364 1.000000
vt 0.545455 1.000000
vt 0.636364 -0.000000
vt 0.545455 0.166667
vt 0.545455 -0.000000
vt 0.636364 0.166667
vt 0.545455 0.333333
vt 0.727273 0.500000
vt 0.727273 0.666667
vt 0.636364 0.833333
vt 0.727273 0.833333
vt 0.727273 0.166667
vt 0.636364 0.333333
vt 0.727273 0.333333
vt 0.818182 0.666667
vt 0.818182 0.833333
vt 0.727273 1.000000
vt 0.818182 -0.000000
vt 0.727273 -0.000000
vt 0.818182 0.166667
vt 0.818182 0.500000
vt 0.909091 0.500000
vt 0.909091 0.833333
vt 0.909091 1.000000
vt 0.818182 1.000000
vt 0.909091 -0.000000
vt 0.909091 0.166667
vt 0.818182 0.333333
vt 0.909091 0.333333
vt 1.000000 0.500000
vt 0.909091 0.666667
vt 1.000000 0.833333
vt 1.000000 -0.000000
vt 1.000000 0.333333
vt 0.090909 0.500000
vt 0.000000 0.666667
vt 0.000000 0.500000
vt 0.090909 0.666667
vt 0.000000 0.833333
vt 0.090909 0.833333
vt 0.000000 1.000000
vt 0.090909 -0.000000
vt 0.000000 0.166667
vt 0.000000 -0.000000
vt 0.090909 0.166667
vt 0.000000 0.333333
vt 0.090909 0.333333
vt 0.181818 0.500000
vt 0.181818 0.666667
vt 0.181818 0.833333
vt 0.090909 1.000000
vt 0.181818 0.166667
vt 0.181818 0.333333
vt 0.272727 0.500000
vt 0.272727 0.833333
vt 0.181818 1.000000
vt 0.272727 -0.000000
vt 0.181818 -0.000000
vt 0.272727 0.166667
vt 0.272727 0.333333
vt 0.363636 0.500000
vt 0.272727 0.666667
vt 0.363636 0.666667
vt 0.363636 0.833333
vt 0.272727 1.000000
vt 0.363636 -0.000000
vt 0.363636 0.166667
vt 0.363636 0.333333
vt 0.454545 0.500000
vt 0.454545 0.666667
vt 0.454545 0.833333
vt 0.363636 1.000000
vt 0.454545 -0.000000
vt 0.454545 0.166667
vt 0.454545 0.333333
vt 0.454545 1.000000
vt 1.000000 0.666667
vt 1.000000 1.000000
vt 1.000000 0.166667
vn 0.8393 0.4846 -0.2464
vn 0.0000 1.0000 0.0000
vn -0.8393 0.4846 0.2464
vn -0.8393 -0.4846 0.2464
vn 0.0000 -1.0000 -0.0000
vn 0.8393 -0.4846 -0.2464
vn 0.5728 0.4846 -0.6611
vn -0.5728 0.4846 0.6611
vn -0.5728 -0.4846 0.6611
vn 0.5728 -0.4846 -0.6611
vn 0.1245 0.4846 -0.8658
vn -0.1245 0.4846 0.8658
vn -0.1245 -0.4846 0.8658
vn 0.1245 -0.4846 -0.8658
vn -0.3634 0.4846 -0.7957
vn 0.3634 0.4846 0.7957
vn 0.3634 -0.4846 0.7957
vn -0.3634 -0.4846 -0.7957
vn -0.7359 0.4846 -0.4729
vn 0.7359 0.4846 0.4729
vn 0.7359 -0.4846 0.4729
vn -0.7359 -0.4846 -0.4729
vn -0.8747 0.4846 0.0000
vn 0.8747 0.4846 0.0000
vn 0.8747 -0.4846 0.0000
vn -0.8747 -0.4846 0.0000
vn -0.7359 0.4846 0.4729
vn 0.7359 0.4846 -0.4729
vn 0.7359 -0.4846 -0.4729
vn -0.7359 -0.4846 0.4729
vn -0.3634 0.4846 0.7957
vn 0.3634 0.4846 -0.7957
vn 0.3634 -0.4846 -0.7957
vn -0.3634 -0.4846 0.7957
vn 0.1245 0.4846 0.8658
vn -0.1245 0.4846 -0.8658
vn -0.1245 -0.4846 -0.8658
vn 0.1245 -0.4846 0.8658
vn 0.5728 0.4846 0.6611
vn -0.5728 0.4846 -0.6611
vn -0.5728 -0.4846 -0.6611
vn 0.5728 -0.4846 0.6611
vn 0.8393 0.4846 0.2464
vn -0.8393 0.4846 -0.2464
vn -0.8393 -0.4846 -0.2464
vn 0.8393 -0.4846 0.2464
usemtl None
s off
f 7/1/1 2/2/1 1/3/1
f 8/4/2 3/5/2 2/2/2
f 3/5/3 10/6/3 4/7/3
f 10/8/4 5/9/4 4/10/4
f 11/11/5 6/12/5 5/9/5
f 6/12/6 7/1/6 1/3/6
f 13/13/7 8/4/7 7/1/7
f 14/14/2 9/15/2 8/4/2
f 15/16/8 10/6/8 9/15/8
f 10/8/9 17/17/9 11/11/9
f 17/17/5 12/18/5 11/11/5
f 18/19/10 7/1/10 12/18/10
f 13/13/11 20/20/11 14/14/11
f 20/20/2 15/16/2 14/14/2
f 21/21/12 16/22/12 15/16/12
f 22/23/13 17/17/13 16/24/13
f 23/25/5 18/19/5 17/17/5
f 18/19/14 19/26/14 13/13/14
f 25/27/15 20/20/15 19/26/15
f 20/20/2 27/28/2 21/21/2
f 21/21/16 28/29/16 22/30/16
f 28/31/17 23/25/17 22/23/17
f 29/32/5 24/33/5 23/25/5
f 30/34/18 19/26/18 24/33/18
f 31/35/19 26/36/19 25/27/19
f 26/36/2 33/37/2 27/28/2
f 33/37/20 28/29/20 27/28/20
f 34/38/21 29/32/21 28/31/21
f 29/32/5 36/39/5 30/34/5
f 30/34/22 31/35/22 25/27/22
f 37/40/23 32/41/23 31/42/23
f 38/43/2 33/44/2 32/41/2
f 39/45/24 34/46/24 33/44/24
f 40/47/25 35/48/25 34/49/25
f 41/50/5 36/51/5 35/48/5
f 42/52/26 31/42/26 36/51/26
f 43/53/27 38/43/27 37/40/27
f 44/54/2 39/45/2 38/43/2
f 45/55/28 40/56/28 39/45/28
f 40/47/29 47/57/29 41/50/29
f 47/57/5 42/52/5 41/50/5
f 48/58/30 37/40/30 42/52/30
f 49/59/31 44/54/31 43/53/31
f 44/54/2 51/60/2 45/55/2
f 51/60/32 46/61/32 45/55/32
f 52/62/33 47/57/33 46/63/33
f 53/64/5 48/58/5 47/57/5
f 54/65/34 43/53/34 48/58/34
f 55/66/35 50/67/35 49/59/35
f 56/68/2 51/60/2 50/67/2
f 57/69/36 52/70/36 51/60/36
f 58/71/37 53/64/37 52/62/37
f 59/72/5 54/65/5 53/64/5
f 60/73/38 49/59/38 54/65/38
f 61/74/39 56/68/39 55/66/39
f 62/75/2 57/69/2 56/68/2
f 63/76/40 58/77/40 57/69/40
f 64/78/41 59/72/41 58/71/41
f 65/79/5 60/73/5 59/72/5
f 66/80/42 55/66/42 60/73/42
f 1/3/43 62/75/43 61/74/43
f 2/2/2 63/76/2 62/75/2
f 3/5/44 64/81/44 63/76/44
f 4/10/45 65/79/45 64/78/45
f 5/9/5 66/80/5 65/79/5
f 6/12/46 61/74/46 66/80/46
f 7/1/1 8/4/1 2/2/1
f 8/4/2 9/15/2 3/5/2
f 3/5/3 9/15/3 10/6/3
f 10/8/4 11/11/4 5/9/4
f 11/11/5 12/18/5 6/12/5
f 6/12/6 12/18/6 7/1/6
f 13/13/7 14/14/7 8/4/7
f 14/14/2 15/16/2 9/15/2
f 15/16/8 16/22/8 10/6/8
f 10/8/9 16/24/9 17/17/9
f 17/17/5 18/19/5 12/18/5
f 18/19/10 13/13/10 7/1/10
f 13/13/11 19/26/11 20/20/11
f 20/20/2 21/21/2 15/16/2
f 21/21/12 22/30/12 16/22/12
f 22/23/13 23/25/13 17/17/13
f 23/25/5 24/33/5 18/19/5
f 18/19/14 24/33/14 19/26/14
f 25/27/15 26/36/15 20/20/15
f 20/20/2 26/36/2 27/28/2
f 21/21/16 27/28/16 28/29/16
f 28/31/17 29/32/17 23/25/17
f 29/32/5 30/34/5 24/33/5
f 30/34/18 25/27/18 19/26/18
f 31/35/19 32/82/19 26/36/19
f 26/36/2 32/82/2 33/37/2
f 33/37/20 34/83/20 28/29/20
f 34/38/21 35/84/21 29/32/21
f 29/32/5 35/84/5 36/39/5
f 30/34/22 36/39/22 31/35/22
f 37/40/23 38/43/23 32/41/23
f 38/43/2 39/45/2 33/44/2
f 39/45/24 40/56/24 34/46/24
f 40/47/25 41/50/25 35/48/25
f 41/50/5 42/52/5 36/51/5
f 42/52/26 37/40/26 31/42/26
f 43/53/27 44/54/27 38/43/27
f 44/54/2 45/55/2 39/45/2
f 45/55/28 46/61/28 40/56/28
f 40/47/29 46/63/29 47/57/29
f 47/57/5 48/58/5 42/52/5
f 48/58/30 43/53/30 37/40/30
f 49/59/31 50/67/31 44/54/31
f 44/54/2 50/67/2 51/60/2
f 51/60/32 52/70/32 46/61/32
f 52/62/33 53/64/33 47/57/33
f 53/64/5 54/65/5 48/58/5
f 54/65/34 49/59/34 43/53/34
f 55/66/35 56/68/35 50/67/35
f 56/68/2 57/69/2 51/60/2
f 57/69/36 58/77/36 52/70/36
f 58/71/37 59/72/37 53/64/37
f 59/72/5 60/73/5 54/65/5
f 60/73/38 55/66/38 49/59/38
f 61/74/39 62/75/39 56/68/39
f 62/75/2 63/76/2 57/69/2
f 63/76/40 64/81/40 58/77/40
f 64/78/41 65/79/41 59/72/41
f 65/79/5 66/80/5 60/73/5
f 66/80/42 61/74/42 55/66/42
f 1/3/43 2/2/43 62/75/43
f 2/2/2 3/5/2 63/76/2
f 3/5/44 4/7/44 64/81/44
f 4/10/45 5/9/45 65/79/45
f 5/9/5 6/12/5 66/80/5
f 6/12/46 1/3/46 61/74/46
