# Blender 4.1.0
# www.blender.org
mtllib xArrow.mtl
o X
v 0.000000 0.000000 -0.100000
v 4.000000 -0.000000 -0.100000
v 0.000000 -0.086602 0.050000
v 4.000000 -0.086603 0.050000
v 0.000000 0.086603 0.050000
v 4.000000 0.086602 0.050000
v 4.000000 0.000000 -1.000000
v 4.000000 -0.866025 -0.500000
v 4.000000 -0.866025 0.500000
v 4.000000 0.000000 1.000000
v 4.000000 0.866025 0.500000
v 4.000000 0.866025 -0.500000
v 6.000000 -0.000000 0.000000
vn -0.0000 -0.8660 -0.5000
vn -0.0000 -0.0000 1.0000
vn 1.0000 -0.0000 -0.0000
vn -0.0000 0.8660 -0.5000
vn -1.0000 -0.0000 -0.0000
vn 0.3974 -0.4588 -0.7947
vn 0.3974 -0.9177 -0.0000
vn 0.3974 -0.4588 0.7947
vn 0.3974 0.4588 0.7947
vn 0.3974 0.9177 -0.0000
vn 0.3974 0.4588 -0.7947
vt 1.000000 1.000000
vt 0.666667 0.500000
vt 1.000000 0.500000
vt 0.666667 1.000000
vt 0.333333 0.500000
vt 0.457846 0.130000
vt 0.250000 0.490000
vt 0.042154 0.130000
vt 0.333333 1.000000
vt -0.000000 0.500000
vt 0.750000 0.490000
vt 0.957846 0.130000
vt 0.542154 0.130000
vt 0.250000 0.250000
vt 0.457846 0.370000
vt 0.250000 0.010000
vt 0.957846 0.370000
vt 0.750000 0.010000
vt 0.542154 0.370000
vt 0.042154 0.370000
vt -0.000000 1.000000
s 0
f 2/1/1 3/2/1 1/3/1
f 4/4/2 5/5/2 3/2/2
f 4/6/3 2/7/3 6/8/3
f 6/9/4 1/10/4 5/5/4
f 1/11/5 3/12/5 5/13/5
f 7/7/6 13/14/6 8/15/6
f 8/15/7 13/14/7 9/6/7
f 9/6/8 13/14/8 10/16/8
f 10/16/9 13/14/9 11/8/9
f 8/17/5 10/18/5 12/19/5
f 11/8/10 13/14/10 12/20/10
f 12/20/11 13/14/11 7/7/11
f 2/1/1 4/4/1 3/2/1
f 4/4/2 6/9/2 5/5/2
f 6/9/4 2/21/4 1/10/4
f 12/19/5 7/11/5 8/17/5
f 8/17/5 9/12/5 10/18/5
f 10/18/5 11/13/5 12/19/5
